<svg width="50" height="50" viewBox="0 0 50 50" fill="none" xmlns="http://www.w3.org/2000/svg">
    <path d="M21.2394 36.832L16.5386 39.568C16.5386 39.568 13.7182 36.832 11.8379 33.184C9.95756 29.536 16.5386 23.152 16.5386 23.152M21.2394 36.832H28.7606M21.2394 36.832C21.2394 36.832 15.5985 24.064 17.4788 16.768C19.3591 9.472 25 4 25 4C25 4 30.6409 9.472 32.5212 16.768C34.4015 24.064 28.7606 36.832 28.7606 36.832M28.7606 36.832L33.4614 39.568C33.4614 39.568 36.2818 36.832 38.1621 33.184C40.0424 29.536 33.4614 23.152 33.4614 23.152M25 46L26.8803 40.528H23.1197L25 46ZM25.9402 17.68C26.4594 18.1837 26.4594 19.0003 25.9402 19.504C25.4209 20.0077 24.5791 20.0077 24.0598 19.504C23.5406 19.0003 23.5406 18.1837 24.0598 17.68C24.5791 17.1763 25.4209 17.1763 25.9402 17.68Z"
          stroke="#FAFAFA" stroke-width="2.5" stroke-linecap="round" stroke-linejoin="round"></path>
</svg>