<svg width="50" height="50" viewBox="0 0 50 50" fill="none" xmlns="http://www.w3.org/2000/svg">
    <path d="M12.9098 3L13.6759 2.35734C13.4411 2.07735 13.0722 1.94777 12.7138 2.01939C12.3554 2.091 12.0647 2.3524 11.9555 2.70115L12.9098 3ZM36.8957 3L37.8545 2.71603C37.7474 2.35425 37.4457 2.08358 37.0745 2.01611C36.7033 1.94865 36.3257 2.09588 36.0981 2.39684L36.8957 3ZM42.9644 44.9329L43.1858 45.9081L43.941 45.7366L43.9639 44.9625L42.9644 44.9329ZM7.12996 44.9329L6.13166 44.9912L6.16506 45.5629L6.67498 45.8234L7.12996 44.9329ZM25.0472 8.02013L25.0274 9.01994L25.0472 8.02013ZM18.1115 9.20134L17.3454 9.844C17.601 10.1487 18.0129 10.273 18.3944 10.1605L18.1115 9.20134ZM31.9829 9.49664L31.6602 10.4431C32.0686 10.5824 32.5203 10.444 32.7805 10.0998L31.9829 9.49664ZM19.0746 27.9007C19.6165 28.0072 20.1422 27.6542 20.2487 27.1123C20.3551 26.5704 20.0022 26.0447 19.4602 25.9382L19.2674 26.9195L19.0746 27.9007ZM11.9466 24.4617C11.4047 24.3552 10.879 24.7082 10.7725 25.2501C10.666 25.7921 11.019 26.3177 11.5609 26.4242L11.7538 25.443L11.9466 24.4617ZM30.6341 25.9382C30.0922 26.0447 29.7392 26.5704 29.8457 27.1123C29.9522 27.6542 30.4778 28.0072 31.0197 27.9007L30.8269 26.9195L30.6341 25.9382ZM38.5334 26.4242C39.0753 26.3177 39.4283 25.7921 39.3218 25.2501C39.2153 24.7082 38.6897 24.3552 38.1478 24.4617L38.3406 25.443L38.5334 26.4242ZM19.2674 30.5772C19.8197 30.5772 20.2674 30.1295 20.2674 29.5772C20.2674 29.0249 19.8197 28.5772 19.2674 28.5772V29.5772V30.5772ZM11.7538 28.5772C11.2015 28.5772 10.7538 29.0249 10.7538 29.5772C10.7538 30.1295 11.2015 30.5772 11.7538 30.5772V29.5772V28.5772ZM30.8269 28.5772C30.2746 28.5772 29.8269 29.0249 29.8269 29.5772C29.8269 30.1295 30.2746 30.5772 30.8269 30.5772V29.5772V28.5772ZM38.3406 30.5772C38.8929 30.5772 39.3406 30.1295 39.3406 29.5772C39.3406 29.0249 38.8929 28.5772 38.3406 28.5772V29.5772V30.5772ZM19.4969 32.9129C20.0345 32.7861 20.3675 32.2476 20.2407 31.7101C20.114 31.1725 19.5754 30.8395 19.0379 30.9663L19.2674 31.9396L19.4969 32.9129ZM11.5242 32.7381C10.9867 32.8649 10.6537 33.4034 10.7805 33.9409C10.9072 34.4785 11.4457 34.8115 11.9833 34.6847L11.7538 33.7114L11.5242 32.7381ZM31.0564 30.9663C30.5189 30.8395 29.9804 31.1725 29.8536 31.7101C29.7268 32.2476 30.0599 32.7861 30.5974 32.9129L30.8269 31.9396L31.0564 30.9663ZM38.1111 34.6847C38.6486 34.8115 39.1871 34.4785 39.3139 33.9409C39.4406 33.4034 39.1076 32.8649 38.5701 32.7381L38.3406 33.7114L38.1111 34.6847ZM26.0747 24.4094L26.0747 23.4094H26.0747V24.4094ZM26.5612 25.3189L25.7143 24.7872L25.7143 24.7872L26.5612 25.3189ZM22.6978 25.3189L23.5447 24.7872L23.5447 24.7872L22.6978 25.3189ZM23.1842 24.4094L23.1842 25.4094H23.1842V24.4094ZM24.143 27.6211L23.2961 28.1527L23.2961 28.1527L24.143 27.6211ZM25.116 27.6211L25.9629 28.1528L25.9629 28.1527L25.116 27.6211ZM16.3776 21.1946C15.8253 21.1946 15.3776 21.6423 15.3776 22.1946C15.3776 22.7469 15.8253 23.1946 16.3776 23.1946V22.1946V21.1946ZM20.4234 23.1946C20.9757 23.1946 21.4234 22.7469 21.4234 22.1946C21.4234 21.6423 20.9757 21.1946 20.4234 21.1946V22.1946V23.1946ZM28.963 21.1946C28.4107 21.1946 27.963 21.6423 27.963 22.1946C27.963 22.7469 28.4107 23.1946 28.963 23.1946V22.1946V21.1946ZM33.0089 23.1946C33.5611 23.1946 34.0089 22.7469 34.0089 22.1946C34.0089 21.6423 33.5611 21.1946 33.0089 21.1946V22.1946V23.1946ZM36.8957 3C35.9369 3.28397 35.9369 3.28393 35.9369 3.28398C35.9369 3.28411 35.937 3.28424 35.937 3.2845C35.9372 3.28502 35.9374 3.28588 35.9378 3.28708C35.9385 3.28948 35.9396 3.29324 35.9411 3.29834C35.9441 3.30854 35.9487 3.32411 35.9548 3.34497C35.9669 3.38667 35.9851 3.4495 36.009 3.53266C36.0567 3.69898 36.127 3.94665 36.2165 4.26947C36.3954 4.91514 36.651 5.86126 36.9562 7.0583C37.5667 9.45276 38.3752 12.8491 39.1657 16.8515C40.749 24.8675 42.2506 35.2668 41.9648 44.9032L42.9644 44.9329L43.9639 44.9625C44.2561 35.109 42.7234 24.5419 41.1278 16.4639C40.329 12.4193 39.5119 8.98684 38.8942 6.56418C38.5853 5.35267 38.3262 4.39317 38.1439 3.73535C38.0527 3.40643 37.9808 3.15289 37.9314 2.98095C37.9067 2.89497 37.8877 2.82939 37.8748 2.78498C37.8683 2.76278 37.8633 2.74587 37.8599 2.73434C37.8582 2.72858 37.8569 2.72417 37.856 2.72111C37.8556 2.71958 37.8552 2.7184 37.855 2.71755C37.8549 2.71713 37.8548 2.71675 37.8547 2.71653C37.8546 2.71624 37.8545 2.71603 36.8957 3ZM7.12996 44.9329L8.12826 44.8746C7.55738 35.1035 8.98515 24.7147 10.5673 16.7416C11.3571 12.761 12.1829 9.39504 12.8107 7.02588C13.1246 5.84151 13.3889 4.90681 13.5742 4.2696C13.6669 3.951 13.7398 3.70682 13.7893 3.54303C13.8141 3.46113 13.833 3.39934 13.8456 3.35839C13.8519 3.33792 13.8567 3.32266 13.8598 3.3127C13.8613 3.30772 13.8624 3.30407 13.8632 3.30176C13.8635 3.3006 13.8638 3.29978 13.8639 3.2993C13.864 3.29905 13.864 3.29894 13.8641 3.29882C13.8641 3.29879 13.8641 3.29885 12.9098 3C11.9555 2.70115 11.9554 2.70138 11.9553 2.70169C11.9552 2.7019 11.9551 2.7023 11.955 2.70273C11.9547 2.70359 11.9543 2.70479 11.9538 2.70633C11.9529 2.7094 11.9515 2.71381 11.9497 2.71956C11.9462 2.73104 11.941 2.74785 11.9342 2.76989C11.9206 2.81396 11.9007 2.87894 11.875 2.96409C11.8235 3.13439 11.7485 3.38535 11.6538 3.711C11.4644 4.36227 11.1958 5.31244 10.8775 6.51355C10.241 8.91536 9.40506 12.3229 8.6055 16.3523C7.00872 24.3994 5.54658 34.9771 6.13166 44.9912L7.12996 44.9329ZM42.9644 44.9329L42.7429 43.9577C35.0111 45.7134 32.1936 46 25.0472 46V47V48C32.3464 48 35.3123 47.696 43.1858 45.9081L42.9644 44.9329ZM25.0472 47V46C21.459 46 17.7381 45.8531 14.5665 45.5254C11.3424 45.1923 8.84377 44.6856 7.58494 44.0424L7.12996 44.9329L6.67498 45.8234C8.30602 46.6567 11.1546 47.1835 14.3609 47.5148C17.6198 47.8516 21.4126 48 25.0472 48V47ZM12.9098 3L12.1436 3.64266L17.3454 9.844L18.1115 9.20134L18.8777 8.55868L13.6759 2.35734L12.9098 3ZM18.1115 9.20134C18.3944 10.1605 18.3943 10.1605 18.3943 10.1605C18.3943 10.1605 18.3942 10.1606 18.3942 10.1606C18.3942 10.1606 18.3943 10.1605 18.3944 10.1605C18.3947 10.1604 18.3952 10.1603 18.396 10.16C18.3975 10.1596 18.4001 10.1588 18.4036 10.1578C18.4106 10.1558 18.4215 10.1526 18.4362 10.1484C18.4655 10.1399 18.5096 10.1273 18.5673 10.1111C18.6827 10.0787 18.852 10.032 19.0643 9.97601C19.4894 9.86384 20.0843 9.71476 20.7621 9.56752C22.1398 9.26825 23.7781 8.99515 25.0274 9.01994L25.0472 8.02013L25.0671 7.02033C23.571 6.99064 21.7414 7.30814 20.3376 7.6131C19.6247 7.76797 19.0004 7.92441 18.554 8.04222C18.3306 8.10119 18.1511 8.15064 18.0266 8.18559C17.9643 8.20308 17.9158 8.21694 17.8824 8.22658C17.8656 8.2314 17.8527 8.23516 17.8437 8.23778C17.8392 8.2391 17.8357 8.24012 17.8332 8.24086C17.8319 8.24123 17.8309 8.24152 17.8302 8.24174C17.8298 8.24185 17.8295 8.24194 17.8292 8.24202C17.8291 8.24205 17.829 8.24209 17.8289 8.24211C17.8288 8.24215 17.8287 8.24218 18.1115 9.20134ZM25.0472 8.02013L25.0274 9.01994C26.2862 9.04492 27.9248 9.3877 29.2999 9.74657C29.9765 9.92313 30.5695 10.0982 30.993 10.2291C31.2045 10.2944 31.3731 10.3486 31.4881 10.3861C31.5455 10.4048 31.5895 10.4194 31.6186 10.4292C31.6332 10.434 31.6441 10.4377 31.6511 10.44C31.6546 10.4412 31.6571 10.4421 31.6586 10.4426C31.6594 10.4429 31.6599 10.443 31.6602 10.4431C31.6603 10.4432 31.6604 10.4432 31.6604 10.4432C31.6604 10.4432 31.6603 10.4432 31.6603 10.4432C31.6603 10.4432 31.6602 10.4431 31.9829 9.49664C32.3056 8.55015 32.3055 8.55011 32.3054 8.55007C32.3054 8.55005 32.3052 8.55 32.3051 8.54996C32.3049 8.54988 32.3045 8.54977 32.3042 8.54965C32.3034 8.54939 32.3024 8.54906 32.3012 8.54863C32.2987 8.54779 32.2952 8.5466 32.2907 8.54509C32.2818 8.54207 32.2689 8.53773 32.2522 8.53218C32.219 8.52106 32.1707 8.50505 32.1087 8.48482C31.9848 8.44437 31.806 8.38701 31.5834 8.31823C31.1387 8.18081 30.5165 7.99708 29.8049 7.81138C28.4037 7.44572 26.5745 7.05024 25.0671 7.02033L25.0472 8.02013ZM31.9829 9.49664L32.7805 10.0998L37.6933 3.60316L36.8957 3L36.0981 2.39684L31.1853 8.89348L31.9829 9.49664ZM19.2674 26.9195L19.4602 25.9382L11.9466 24.4617L11.7538 25.443L11.5609 26.4242L19.0746 27.9007L19.2674 26.9195ZM30.8269 26.9195L31.0197 27.9007L38.5334 26.4242L38.3406 25.443L38.1478 24.4617L30.6341 25.9382L30.8269 26.9195ZM19.2674 29.5772V28.5772H11.7538V29.5772V30.5772H19.2674V29.5772ZM30.8269 29.5772V30.5772H38.3406V29.5772V28.5772H30.8269V29.5772ZM19.2674 31.9396L19.0379 30.9663L11.5242 32.7381L11.7538 33.7114L11.9833 34.6847L19.4969 32.9129L19.2674 31.9396ZM30.8269 31.9396L30.5974 32.9129L38.1111 34.6847L38.3406 33.7114L38.5701 32.7381L31.0564 30.9663L30.8269 31.9396ZM24.143 27.6211L24.9899 27.0894L23.5447 24.7872L22.6978 25.3189L21.8508 25.8506L23.2961 28.1527L24.143 27.6211ZM23.1842 24.4094V25.4094H26.0747V24.4094V23.4094H23.1842V24.4094ZM26.5612 25.3189L25.7143 24.7872L24.269 27.0894L25.116 27.6211L25.9629 28.1527L27.4082 25.8506L26.5612 25.3189ZM26.0747 24.4094L26.0747 25.4094C25.7072 25.4094 25.5635 25.0275 25.7143 24.7872L26.5612 25.3189L27.4082 25.8506C28.0525 24.8242 27.3563 23.4094 26.0747 23.4094L26.0747 24.4094ZM22.6978 25.3189L23.5447 24.7872C23.6955 25.0275 23.5518 25.4094 23.1842 25.4094L23.1842 24.4094L23.1842 23.4094C21.9026 23.4094 21.2064 24.8242 21.8508 25.8506L22.6978 25.3189ZM24.143 27.6211L23.2961 28.1527C23.9155 29.1394 25.3435 29.1394 25.9629 28.1528L25.116 27.6211L24.269 27.0894C24.4336 26.8272 24.8254 26.8272 24.9899 27.0894L24.143 27.6211ZM16.3776 22.1946V23.1946H20.4234V22.1946V21.1946H16.3776V22.1946ZM28.963 22.1946V23.1946H33.0089V22.1946V21.1946H28.963V22.1946Z"
          fill="#FAFAFA"></path>
</svg>