<svg width="50" height="50" viewBox="0 0 50 50" fill="none" xmlns="http://www.w3.org/2000/svg">
    <path fill-rule="evenodd" clip-rule="evenodd"
          d="M9.89914 12.0988C8.76625 12.3109 7.40023 12.9154 6.4671 13.6175C4.88097 14.8109 3.43945 16.9431 3.43945 18.0958C3.43945 18.5921 3.7749 18.897 4.32087 18.897C4.54535 18.897 4.56025 18.9067 4.52245 19.0284C4.49995 19.1006 4.4677 19.5801 4.45075 20.0939C4.42358 20.9148 4.43504 21.0917 4.54506 21.5535C4.77726 22.5281 5.36121 23.5213 6.10823 24.2123C7.0261 25.0612 8.09752 25.5287 9.47582 25.6819C10.0706 25.748 10.1056 25.7591 10.0711 25.8713C9.98977 26.1363 9.96722 28.7692 10.0409 29.3936C10.2707 31.3407 11.0434 33.2014 12.3129 34.8649C12.9693 35.7251 14.245 36.9013 15.2422 37.5658C17.8436 39.2992 21.8949 40.176 26.3591 39.9715C28.2677 39.8841 29.5744 39.695 31.0475 39.2929C34.981 38.2194 38.1435 35.3868 39.367 31.8411C39.8477 30.4483 39.9953 29.291 39.9344 27.3918C39.9128 26.7175 39.8806 26.0712 39.8628 25.9556L39.8304 25.7456L40.3178 25.705C42.8281 25.496 44.777 23.973 45.4062 21.7286C45.5595 21.1815 45.6046 19.9667 45.4944 19.3495L45.4136 18.897L45.6511 18.8969C46.1008 18.8968 46.5605 18.518 46.5605 18.1477C46.5605 17.6975 46.2365 16.8334 45.8015 16.1238C43.7587 12.7907 39.7682 11.1824 36.59 12.4113C36.027 12.6289 35.3838 13.0062 34.6993 13.5202C34.1087 13.9638 32.7678 15.2974 32.479 15.7285C32.3378 15.9393 32.2474 16.0228 32.1869 15.9983C31.0329 15.5301 28.8717 15.0268 27.045 14.8008C26.2485 14.7023 23.7063 14.701 22.8673 14.7988C21.2192 14.9908 19.7141 15.3186 18.4414 15.7624L17.6965 16.0221L17.4227 15.6351C17.0693 15.1358 15.9297 13.9978 15.3287 13.5442C14.4248 12.8621 13.614 12.4273 12.7882 12.1822C12.211 12.0108 10.6148 11.9648 9.89914 12.0988ZM25.8049 24.9694C26.7666 25.3068 27.3845 26.0745 27.8608 27.5239C28.5272 29.5517 28.8276 32.0738 28.5196 33.055C28.3591 33.5664 28.1983 33.8307 27.8071 34.2255C27.4325 34.6037 26.8449 34.9031 26.1978 35.0456C25.5992 35.1774 24.3828 35.1807 23.793 35.0522C22.0734 34.6774 21.2382 33.507 21.3472 31.6246C21.4385 30.0455 21.9862 27.7393 22.5465 26.5745C22.931 25.775 23.553 25.1993 24.2849 24.9655C24.7443 24.8187 25.3799 24.8204 25.8049 24.9694Z"
          stroke="#FAFAFA" stroke-width="2.5" stroke-linejoin="round"></path>
    <ellipse cx="17.2999" cy="27.0342" rx="1.54004" ry="1.54004" fill="#FAFAFA"></ellipse>
    <ellipse cx="32.9243" cy="27.0342" rx="1.54004" ry="1.54004" fill="#FAFAFA"></ellipse>
</svg>