<svg width="50" height="50" viewBox="0 0 50 50" fill="none" xmlns="http://www.w3.org/2000/svg">
    <path d="M9.6586 13.2268L12.1706 30.7123H12.3749L20.8724 13.2268H27.531L15.1393 37.1004H7.21872L3 13.2268H9.6586Z"
          fill="#FAFAFA"></path>
    <path d="M26.0467 37.1004L26.7558 32.9505L37.0442 25.3268C37.8214 24.7362 38.4865 24.1922 39.0394 23.6948C39.6003 23.1974 40.049 22.7001 40.3855 22.2027C40.722 21.7053 40.9384 21.1613 41.0345 20.5707C41.1467 19.9102 41.0946 19.3428 40.8783 18.8688C40.6619 18.3947 40.3174 18.0334 39.8446 17.7847C39.3719 17.5282 38.803 17.4 38.1379 17.4C37.4568 17.4 36.8319 17.536 36.2629 17.808C35.694 18.0722 35.2213 18.4608 34.8447 18.9737C34.4761 19.4788 34.2317 20.0889 34.1115 20.8039H28.4625C28.743 19.1796 29.364 17.7769 30.3255 16.5957C31.287 15.4144 32.505 14.5052 33.9793 13.8679C35.4537 13.2229 37.1003 12.9004 38.9192 12.9004C40.7781 12.9004 42.3446 13.2035 43.6187 13.8096C44.9007 14.4158 45.8262 15.2629 46.3951 16.3509C46.972 17.4311 47.1363 18.6862 46.8879 20.1161C46.7276 21.0253 46.3791 21.9268 45.8422 22.8205C45.3134 23.7065 44.468 24.6934 43.3062 25.7814C42.1443 26.8616 40.5458 28.1556 38.5105 29.6632L35.1211 32.2977L35.0851 32.4492H45.073L44.2677 37.1004H26.0467Z"
          fill="#FAFAFA"></path>
</svg>