<svg width="50" height="50" viewBox="0 0 50 50" fill="none" xmlns="http://www.w3.org/2000/svg">
    <path d="M22.3264 3H12.3611L9.44444 20.1525L21.3542 8.22034L22.3264 3Z" fill="#FAFAFA"></path>
    <path d="M10.9028 20.1525L22.8125 8.22034L20.8681 21.1469H28.4028L27.9167 21.6441L20.8681 28.8531H19.4097V30.5932L7.5 42.5254L10.9028 20.1525Z"
          fill="#FAFAFA"></path>
    <path d="M41.0417 8.22034L28.8889 20.1525L31.684 3H41.7708L41.0417 8.22034Z" fill="#FAFAFA"></path>
    <path d="M30.3472 20.1525L42.5 8.22034L38.6111 30.3446L26.9444 42.5254L29.0104 28.8531H22.3264L29.6181 21.1469H30.3472V20.1525Z"
          fill="#FAFAFA"></path>
    <path d="M40.0694 30.3446L28.4028 42.5254L27.9167 47H37.8819L40.0694 30.3446Z" fill="#FAFAFA"></path>
    <path d="M18.6806 47H8.47222L8.95833 42.5254L20.8681 30.5932L18.6806 47Z" fill="#FAFAFA"></path>
</svg>