<svg width="50" height="50" viewBox="0 0 50 50" fill="none" xmlns="http://www.w3.org/2000/svg">
    <path d="M13.866 16.8181C18.8416 13.0077 17.7292 3.8174 25.4893 3.27965C35.4666 2.58824 33.4174 14.1614 38.9603 20.0418C41.3708 22.5989 45.1415 19.1332 48.1313 24.3428C48.8491 25.5936 47.2497 26.415 46.754 27.7693C46.4345 28.642 46.9019 29.893 45.9813 30.0201C45.2892 30.1156 45.1991 28.9508 44.5032 29.0123C43.5681 29.0948 43.7075 30.266 43.4282 31.1622C43.1444 32.0727 43.7413 32.8822 43.0923 33.581C42.5389 34.1768 41.8738 33.9395 41.1102 34.2193C40.1058 34.5872 39.6561 35.3909 38.5907 35.2942C36.004 35.8989 37.3478 31.9659 36.004 32.9091C35.0254 33.2737 35.1482 34.3116 34.7947 35.2942C34.3164 36.6236 34.6045 37.5153 34.1564 38.8552C33.8027 39.9127 33.8019 40.7258 32.947 41.4419C31.8803 42.3353 30.6937 41.3861 29.4197 41.9458C28.2641 42.4534 28.0354 43.4513 26.8666 43.9278C25.6336 44.4304 24.7775 43.9936 23.4737 44.2637C21.8948 44.5908 22.2643 47.251 17.662 47.251C12.623 47.251 13.9762 43.8047 11.4136 43.0879C9.29628 42.4957 6.72214 43.7417 4.79568 42.6823C2.57851 41.0698 3.73618 39.2893 3.25038 38.651C3.04583 38.3823 2.78007 38.1471 1.36914 37.9456C2.14179 37.0722 3.7478 36.9276 4.62771 37.4753C5.69493 38.1395 4.87296 39.4856 5.80348 40.3307C7.27871 41.6706 9.20527 40.9045 10.6745 39.5581C11.8745 38.4584 12.5426 37.3203 11.7495 35.8989C11.1167 34.7647 9.00651 35.3029 8.08784 34.3847C14.0675 33.7464 15.4784 28.7771 15.4784 28.7771C15.4784 28.7771 13.2258 32.0615 11.7495 31.1622C10.7424 30.5488 11.531 29.1511 10.6745 28.3404C9.20206 26.9466 6.81252 30.3234 5.50114 28.7771C4.37848 27.4533 6.54224 25.9134 5.80348 24.3428C5.13202 22.9152 2.64569 23.2988 2.64569 21.8233C3.25038 17.5543 9.52468 20.1427 13.866 16.8181Z"
          stroke="#FAFAFA" stroke-linejoin="round"></path>
    <path d="M25.4541 2.78125C28.0529 2.60116 29.9301 3.21932 31.3438 4.39551C32.7382 5.55579 33.6286 7.21628 34.3516 9.00977C34.7142 9.90935 35.0409 10.8584 35.3662 11.8096C35.693 12.7651 36.0188 13.7246 36.3857 14.6631C37.1201 16.5414 38.0035 18.2981 39.3242 19.6992C39.8304 20.236 40.4048 20.4623 41.0674 20.5664C41.4056 20.6195 41.7639 20.6401 42.1504 20.6533C42.5275 20.6662 42.9464 20.6715 43.3604 20.6982C44.202 20.7526 45.1135 20.8959 46.0176 21.3945C46.9248 21.8949 47.7813 22.7292 48.5645 24.0938C48.6817 24.2983 48.6403 24.5573 48.4648 24.7148C48.2893 24.872 48.0275 24.8856 47.8369 24.7471C47.5075 24.5076 46.8867 24.2386 46.1533 24.2656C45.4411 24.292 44.5805 24.5989 43.7393 25.5742C43.6218 25.7099 43.4398 25.7721 43.2637 25.7373C43.0876 25.7023 42.9436 25.5756 42.8867 25.4053C42.7574 25.0172 42.6295 24.9378 42.6035 24.9258C42.5931 24.921 42.5381 24.8982 42.3857 24.9805C42.2337 25.0628 42.0604 25.2126 41.8916 25.3994C41.7266 25.5821 41.5873 25.775 41.501 25.9141C41.0537 26.6349 40.7456 27.5631 40.6553 28.4502C40.5638 29.3504 40.7037 30.1226 41.0459 30.5996C41.1532 30.7493 41.17 30.946 41.0889 31.1113C40.5681 32.1725 39.6992 32.6125 38.8975 32.71C38.505 32.7576 38.1286 32.7239 37.8135 32.6475C37.5117 32.5742 37.2147 32.4498 37.0156 32.2734C36.6021 31.9071 36.3478 31.2654 36.1699 30.6143C36.0173 30.0555 35.9026 29.4091 35.8096 28.7471C35.7477 29.0531 35.6816 29.3584 35.6055 29.6572C35.3571 30.6318 35.0245 31.5732 34.5801 32.3379C34.1387 33.097 33.5539 33.7378 32.7793 34.0156C31.2052 34.5801 29.9652 34.7362 29.2109 34.9209C28.8168 35.0174 28.5692 35.1152 28.3975 35.2461C28.2426 35.3643 28.1122 35.5384 28.0186 35.8662C27.8756 36.3677 27.9893 36.7535 28.1836 37.0469C28.3893 37.3573 28.6903 37.5682 28.8887 37.6592C29.1387 37.7738 29.2488 38.0687 29.1357 38.3193C28.8991 38.8435 28.4028 39.5828 27.6582 40.1572C26.9034 40.7393 25.8764 41.1632 24.6162 40.9941C21.7055 40.6035 20.0659 38.5441 19.6963 38.29C19.5202 38.1691 19.1741 38.0434 18.7168 37.998C18.2694 37.9537 17.7612 37.9917 17.2822 38.1514C16.8822 38.2848 16.3164 38.5919 15.877 39.0205C15.4365 39.4503 15.1844 39.9373 15.2363 40.4482C15.267 40.7477 15.4827 40.8907 15.8115 41.1934C15.8788 41.2553 15.9759 41.3489 16.0469 41.4658C16.126 41.5965 16.1956 41.7966 16.126 42.0273C16.0641 42.2317 15.9188 42.3677 15.8008 42.4541C15.6766 42.5449 15.5197 42.6266 15.3418 42.7041C14.2372 43.1853 13.2777 42.9902 12.6143 42.5156C12.2916 42.2848 12.0425 41.991 11.8828 41.6875C11.8257 41.5789 11.7762 41.462 11.7402 41.3418C11.6474 41.3402 11.5514 41.3363 11.4561 41.3252C11.14 41.2884 10.777 41.1931 10.4551 40.9961C10.1256 40.7943 9.83413 40.4809 9.70312 40.0283C9.57444 39.5832 9.61853 39.064 9.83594 38.4775C9.94067 38.1952 10.0685 37.9331 10.1846 37.7002C10.3046 37.4592 10.4073 37.2569 10.4883 37.0605C10.6464 36.6771 10.672 36.4231 10.5566 36.1729C10.3906 35.8132 10.1087 35.6923 9.57227 35.5625C9.07873 35.4431 8.31544 35.3189 7.73438 34.7383C7.59826 34.6022 7.55234 34.3993 7.61621 34.2178C7.68035 34.0366 7.84313 33.9084 8.03418 33.8877C10.4546 33.6293 12.071 32.6277 13.1338 31.5723C12.9823 31.5689 12.8348 31.4985 12.7402 31.3691C12.5965 31.1723 12.6163 30.9003 12.7861 30.7256C13.0237 30.482 13.2482 30.0241 13.3945 29.4189C13.5378 28.8261 13.5921 28.1476 13.5361 27.5166C13.4794 26.8784 13.3142 26.3344 13.0605 25.9727C12.8399 25.6581 12.5568 25.4822 12.168 25.4775C12.0747 25.5293 12.0244 25.5852 11.9834 25.6611C11.9165 25.7853 11.8574 25.9934 11.8086 26.3838C11.7751 26.6498 11.5378 26.8429 11.2705 26.8203C10.5726 26.7613 10.0555 26.5159 9.68945 26.1133C9.33845 25.727 9.17133 25.2437 9.06445 24.8018C9.01046 24.5783 8.96888 24.3487 8.92969 24.1348C8.8896 23.9159 8.85161 23.7122 8.80566 23.5176C8.71262 23.1235 8.59662 22.8282 8.41504 22.6182C8.20285 22.3728 7.80262 22.072 7.27832 21.7959C6.76115 21.5236 6.15884 21.2943 5.56836 21.1729C4.97213 21.0503 4.42631 21.0452 4 21.1777C3.59588 21.3035 3.28628 21.5538 3.11133 22.0039C3.01925 22.2402 2.76497 22.3706 2.51953 22.3066C2.27409 22.2424 2.11504 22.0041 2.15039 21.7529C2.32374 20.5295 2.92447 19.7555 3.80176 19.2705C4.63452 18.8103 5.69956 18.6218 6.78613 18.4717C9.0274 18.1621 11.5201 17.984 13.5615 16.4209C14.7208 15.5331 15.5431 14.3184 16.2441 12.9434C16.5943 12.2565 16.9112 11.537 17.2246 10.8047C17.5361 10.0771 17.8474 9.32991 18.1797 8.61133C18.8438 7.17527 19.6203 5.78484 20.7568 4.7207C21.9079 3.6431 23.4033 2.92352 25.4541 2.78125ZM26.0117 17.0078C25.0735 17.0081 24.3135 18.3545 24.3135 20.0156C24.3135 21.6766 25.0736 23.0231 26.0117 23.0234C26.95 23.0234 27.7109 21.6768 27.7109 20.0156C27.7109 18.3543 26.95 17.0078 26.0117 17.0078ZM23.3418 8.24023C22.0748 8.08413 20.822 9.78867 20.543 12.0479C20.264 14.3072 21.065 16.2654 22.332 16.4219C23.599 16.578 24.8518 14.8734 25.1309 12.6143C25.4099 10.3549 24.6089 8.39674 23.3418 8.24023ZM28.668 8.24023C27.4012 8.39718 26.6009 10.3552 26.8799 12.6143C27.1589 14.8735 28.4117 16.5781 29.6787 16.4219C30.9458 16.2654 31.7468 14.3072 31.4678 12.0479C31.1887 9.78844 29.9351 8.08373 28.668 8.24023Z"
          fill="#FAFAFA"></path>
</svg>