<svg viewBox="0 0 24 24" fill="none" stroke="currentColor" stroke-width="1.7" stroke-linecap="round" stroke-linejoin="round"><path d="M15.6 5.1c-.7.8-1.8 1.3-2.8 1.2-.2-1 .3-2 .9-2.7.7-.8 1.8-1.4 2.8-1.4.1 1.1-.3 2.1-.9 2.9z"/><path d="M18.8 13.7c0-2.9 2.4-4.3 2.5-4.4-1.4-2-3.6-2.2-4.4-2.2-1.8-.2-3.6 1.1-4.5 1.1-.9 0-2.2-1-3.7-1-1.9 0-3.6 1.1-4.6 2.8-1.9 3.3-.5 8.1 1.4 10.9.9 1.4 2 3 3.4 2.9 1.3 0 1.8-.8 3.4-.8 1.6 0 2 .8 3.4.8 1.4 0 2.4-1.4 3.3-2.8 1-1.4 1.4-2.8 1.4-2.9-.1 0-2.6-1-2.6-4.4z"/></svg>
