<svg viewBox="0 0 24 24" fill="none" xmlns="http://www.w3.org/2000/svg">
  <path d="M15.2 4.6C15.7 3.9 16 3.1 16 2.3C15.1 2.4 14.1 3 13.6 3.7C13.1 4.3 12.7 5.2 12.8 6C13.7 6.1 14.7 5.5 15.2 4.6Z" fill="currentColor"/>
  <path d="M18.8 14.7C18.3 15.8 17.7 16.8 16.8 17.9C16.1 18.7 15.2 19.6 14.1 19.6C13.1 19.6 12.8 19 11.5 19C10.2 19 9.8 19.6 8.9 19.6C7.8 19.6 7 18.8 6.3 17.9C4.4 15.6 3 11.3 5.1 8.5C6.1 7.2 7.8 6.4 9.3 6.4C10.4 6.4 11.5 7.1 12.2 7.1C12.9 7.1 14.2 6.3 15.6 6.4C16.2 6.4 17.9 6.6 19 8.2C16.2 9.8 16.6 13.8 18.8 14.7Z" fill="currentColor"/>
</svg>
